<svg xmlns="http://www.w3.org/2000/svg" viewBox="0 0 240 336" role="img" aria-label="FishKiller card back">
  <defs>
    <linearGradient id="fk-card-back-bg" x1="0" y1="0" x2="0" y2="1">
      <stop offset="0" stop-color="#1b0f08"/>
      <stop offset="0.45" stop-color="#35200f"/>
      <stop offset="1" stop-color="#090503"/>
    </linearGradient>
    <linearGradient id="fk-card-back-gold" x1="0" y1="0" x2="1" y2="1">
      <stop offset="0" stop-color="#fff1bd"/>
      <stop offset="0.46" stop-color="#d69b42"/>
      <stop offset="1" stop-color="#7a4a18"/>
    </linearGradient>
    <pattern id="fk-card-back-grid" width="24" height="24" patternUnits="userSpaceOnUse" patternTransform="rotate(45)">
      <path d="M0 12h24M12 0v24" fill="none" stroke="#d69b42" stroke-width="1.4" stroke-opacity="0.24"/>
    </pattern>
  </defs>
  <rect x="4" y="4" width="232" height="328" rx="20" fill="#201107"/>
  <rect x="10" y="10" width="220" height="316" rx="16" fill="url(#fk-card-back-bg)"/>
  <rect x="20" y="20" width="200" height="296" rx="12" fill="url(#fk-card-back-grid)"/>
  <rect x="19" y="19" width="202" height="298" rx="13" fill="none" stroke="url(#fk-card-back-gold)" stroke-width="5"/>
  <rect x="34" y="34" width="172" height="268" rx="10" fill="none" stroke="#fff1bd" stroke-width="2" stroke-opacity="0.42"/>
  <circle cx="120" cy="168" r="52" fill="#090503" fill-opacity="0.62" stroke="url(#fk-card-back-gold)" stroke-width="5"/>
  <path d="M120 104c24 26 44 52 44 78 0 25-18 42-44 42s-44-17-44-42c0-26 20-52 44-78z" fill="url(#fk-card-back-gold)" opacity="0.92"/>
  <path d="M120 130c14 17 26 34 26 51 0 15-10 25-26 25s-26-10-26-25c0-17 12-34 26-51z" fill="#2a170b" opacity="0.84"/>
  <text x="120" y="179" text-anchor="middle" fill="#fff1bd" font-family="Georgia, 'Times New Roman', serif" font-size="30" font-weight="900">FK</text>
</svg>
